<mxfile host="Electron" agent="Mozilla/5.0 (Windows NT 10.0; Win64; x64) AppleWebKit/537.36 (KHTML, like Gecko) draw.io/26.0.16 Chrome/132.0.6834.196 Electron/34.2.0 Safari/537.36" version="26.0.16">
  <diagram name="Page-1" id="k1Re1i0GMar1T7EhPN9C">
    <mxGraphModel dx="1733" dy="1120" grid="1" gridSize="10" guides="1" tooltips="1" connect="1" arrows="1" fold="1" page="1" pageScale="1" pageWidth="850" pageHeight="1100" math="0" shadow="0">
      <root>
        <mxCell id="0" />
        <mxCell id="1" parent="0" />
        <mxCell id="ToLTd-W0XipblOC063zZ-1" value="" style="swimlane;startSize=0;" parent="1" vertex="1">
          <mxGeometry x="160" y="20" width="560" height="1060" as="geometry" />
        </mxCell>
        <mxCell id="ToLTd-W0XipblOC063zZ-3" value="&lt;font style=&quot;font-size: 24px;&quot;&gt; Online Library System&lt;/font&gt;" style="text;html=1;align=center;verticalAlign=middle;whiteSpace=wrap;rounded=0;" parent="ToLTd-W0XipblOC063zZ-1" vertex="1">
          <mxGeometry x="110" width="330" height="30" as="geometry" />
        </mxCell>
        <mxCell id="ToLTd-W0XipblOC063zZ-12" value="" style="ellipse;whiteSpace=wrap;html=1;" parent="ToLTd-W0XipblOC063zZ-1" vertex="1">
          <mxGeometry x="133.75" y="50" width="176.25" height="70" as="geometry" />
        </mxCell>
        <mxCell id="ToLTd-W0XipblOC063zZ-13" value="" style="ellipse;whiteSpace=wrap;html=1;" parent="ToLTd-W0XipblOC063zZ-1" vertex="1">
          <mxGeometry x="121.88" y="130" width="178.12" height="70" as="geometry" />
        </mxCell>
        <mxCell id="6xdWwRQ45FuQLCWsqopB-18" style="edgeStyle=none;rounded=0;orthogonalLoop=1;jettySize=auto;html=1;exitX=0;exitY=0;exitDx=0;exitDy=0;entryX=1;entryY=1;entryDx=0;entryDy=0;dashed=1;" edge="1" parent="ToLTd-W0XipblOC063zZ-1" source="ToLTd-W0XipblOC063zZ-14" target="ToLTd-W0XipblOC063zZ-13">
          <mxGeometry relative="1" as="geometry" />
        </mxCell>
        <mxCell id="ToLTd-W0XipblOC063zZ-14" value="" style="ellipse;whiteSpace=wrap;html=1;" parent="ToLTd-W0XipblOC063zZ-1" vertex="1">
          <mxGeometry x="314.38" y="210" width="170" height="70" as="geometry" />
        </mxCell>
        <mxCell id="ToLTd-W0XipblOC063zZ-15" value="" style="ellipse;whiteSpace=wrap;html=1;" parent="ToLTd-W0XipblOC063zZ-1" vertex="1">
          <mxGeometry x="123.44" y="290" width="176.56" height="80" as="geometry" />
        </mxCell>
        <mxCell id="ToLTd-W0XipblOC063zZ-21" value="&lt;font style=&quot;font-size: 14px;&quot;&gt;Search for a Book&lt;/font&gt;" style="text;html=1;align=center;verticalAlign=middle;whiteSpace=wrap;rounded=0;" parent="ToLTd-W0XipblOC063zZ-1" vertex="1">
          <mxGeometry x="150" y="75" width="150" height="20" as="geometry" />
        </mxCell>
        <mxCell id="ToLTd-W0XipblOC063zZ-24" value="&lt;font style=&quot;font-size: 14px;&quot;&gt;Pay Fine&lt;/font&gt;" style="text;html=1;align=center;verticalAlign=middle;whiteSpace=wrap;rounded=0;" parent="ToLTd-W0XipblOC063zZ-1" vertex="1">
          <mxGeometry x="341.88" y="230" width="115" height="30" as="geometry" />
        </mxCell>
        <mxCell id="ToLTd-W0XipblOC063zZ-23" value="&lt;font style=&quot;font-size: 14px;&quot;&gt;Reserve a Book&lt;/font&gt;" style="text;html=1;align=center;verticalAlign=middle;whiteSpace=wrap;rounded=0;" parent="ToLTd-W0XipblOC063zZ-1" vertex="1">
          <mxGeometry x="164.38" y="315" width="115" height="30" as="geometry" />
        </mxCell>
        <mxCell id="ToLTd-W0XipblOC063zZ-22" value="&lt;font style=&quot;font-size: 14px;&quot;&gt;Return a Book&lt;/font&gt;" style="text;html=1;align=center;verticalAlign=middle;whiteSpace=wrap;rounded=0;" parent="ToLTd-W0XipblOC063zZ-1" vertex="1">
          <mxGeometry x="151.88" y="150" width="120" height="30" as="geometry" />
        </mxCell>
        <mxCell id="ToLTd-W0XipblOC063zZ-27" value="" style="ellipse;whiteSpace=wrap;html=1;" parent="ToLTd-W0XipblOC063zZ-1" vertex="1">
          <mxGeometry x="106.88" y="390" width="193.12" height="80" as="geometry" />
        </mxCell>
        <mxCell id="ToLTd-W0XipblOC063zZ-28" value="&lt;font style=&quot;font-size: 14px;&quot;&gt;View borrowing history&lt;/font&gt;" style="text;html=1;align=center;verticalAlign=middle;whiteSpace=wrap;rounded=0;" parent="ToLTd-W0XipblOC063zZ-1" vertex="1">
          <mxGeometry x="135" y="415" width="150" height="30" as="geometry" />
        </mxCell>
        <mxCell id="ToLTd-W0XipblOC063zZ-43" value="" style="ellipse;whiteSpace=wrap;html=1;" parent="ToLTd-W0XipblOC063zZ-1" vertex="1">
          <mxGeometry x="151.88" y="860" width="188.12" height="80" as="geometry" />
        </mxCell>
        <mxCell id="6xdWwRQ45FuQLCWsqopB-10" style="edgeStyle=none;rounded=0;orthogonalLoop=1;jettySize=auto;html=1;entryX=0;entryY=0.5;entryDx=0;entryDy=0;dashed=1;exitX=1;exitY=1;exitDx=0;exitDy=0;" edge="1" parent="ToLTd-W0XipblOC063zZ-1" source="ToLTd-W0XipblOC063zZ-27" target="ToLTd-W0XipblOC063zZ-42">
          <mxGeometry relative="1" as="geometry">
            <mxPoint x="280" y="465" as="sourcePoint" />
          </mxGeometry>
        </mxCell>
        <mxCell id="ToLTd-W0XipblOC063zZ-42" value="" style="ellipse;whiteSpace=wrap;html=1;" parent="ToLTd-W0XipblOC063zZ-1" vertex="1">
          <mxGeometry x="370" y="460" width="160" height="70" as="geometry" />
        </mxCell>
        <mxCell id="ToLTd-W0XipblOC063zZ-41" value="" style="ellipse;whiteSpace=wrap;html=1;" parent="ToLTd-W0XipblOC063zZ-1" vertex="1">
          <mxGeometry x="150" y="750" width="190" height="80" as="geometry" />
        </mxCell>
        <mxCell id="ToLTd-W0XipblOC063zZ-44" style="edgeStyle=none;rounded=0;orthogonalLoop=1;jettySize=auto;html=1;exitX=1;exitY=0.5;exitDx=0;exitDy=0;" parent="ToLTd-W0XipblOC063zZ-1" source="ToLTd-W0XipblOC063zZ-12" target="ToLTd-W0XipblOC063zZ-12" edge="1">
          <mxGeometry relative="1" as="geometry" />
        </mxCell>
        <mxCell id="ToLTd-W0XipblOC063zZ-55" value="&lt;font style=&quot;font-size: 14px;&quot;&gt;Managing book inventory&lt;/font&gt;" style="text;html=1;align=center;verticalAlign=middle;whiteSpace=wrap;rounded=0;" parent="ToLTd-W0XipblOC063zZ-1" vertex="1">
          <mxGeometry x="170" y="770" width="150" height="30" as="geometry" />
        </mxCell>
        <mxCell id="ToLTd-W0XipblOC063zZ-56" value="&lt;font style=&quot;font-size: 14px;&quot;&gt;Approving book borrowing requests&lt;/font&gt;" style="text;html=1;align=center;verticalAlign=middle;whiteSpace=wrap;rounded=0;" parent="ToLTd-W0XipblOC063zZ-1" vertex="1">
          <mxGeometry x="180.16" y="885" width="131.56" height="30" as="geometry" />
        </mxCell>
        <mxCell id="ToLTd-W0XipblOC063zZ-57" value="&lt;font style=&quot;font-size: 14px;&quot;&gt;&amp;nbsp;student &lt;br/&gt;borrwing history&lt;/font&gt;" style="text;html=1;align=center;verticalAlign=middle;whiteSpace=wrap;rounded=0;" parent="ToLTd-W0XipblOC063zZ-1" vertex="1">
          <mxGeometry x="387.5" y="480" width="125" height="30" as="geometry" />
        </mxCell>
        <mxCell id="ToLTd-W0XipblOC063zZ-58" value="" style="ellipse;whiteSpace=wrap;html=1;" parent="ToLTd-W0XipblOC063zZ-1" vertex="1">
          <mxGeometry x="151.88" y="660" width="190" height="70" as="geometry" />
        </mxCell>
        <mxCell id="ToLTd-W0XipblOC063zZ-59" value="&lt;font style=&quot;font-size: 14px;&quot;&gt;&lt;br&gt;Managing fines&lt;br&gt;&lt;/font&gt;" style="text;html=1;align=center;verticalAlign=middle;whiteSpace=wrap;rounded=0;" parent="ToLTd-W0XipblOC063zZ-1" vertex="1">
          <mxGeometry x="186.88" y="680" width="120" height="30" as="geometry" />
        </mxCell>
        <mxCell id="6xdWwRQ45FuQLCWsqopB-1" value="" style="ellipse;whiteSpace=wrap;html=1;" vertex="1" parent="ToLTd-W0XipblOC063zZ-1">
          <mxGeometry x="170" y="960" width="168.28" height="80" as="geometry" />
        </mxCell>
        <mxCell id="6xdWwRQ45FuQLCWsqopB-2" value="&lt;font style=&quot;font-size: 14px;&quot;&gt; Notifying students&lt;/font&gt;" style="text;html=1;align=center;verticalAlign=middle;whiteSpace=wrap;rounded=0;" vertex="1" parent="ToLTd-W0XipblOC063zZ-1">
          <mxGeometry x="192.11" y="985" width="124.06" height="30" as="geometry" />
        </mxCell>
        <mxCell id="6xdWwRQ45FuQLCWsqopB-14" value="&lt;font style=&quot;font-size: 14px;&quot;&gt;&amp;lt;&amp;lt;include&amp;gt;&amp;gt;&lt;/font&gt;" style="text;html=1;align=center;verticalAlign=middle;whiteSpace=wrap;rounded=0;rotation=0;" vertex="1" parent="ToLTd-W0XipblOC063zZ-1">
          <mxGeometry x="300" y="440" width="100" height="30" as="geometry" />
        </mxCell>
        <mxCell id="6xdWwRQ45FuQLCWsqopB-19" value="&lt;font style=&quot;font-size: 14px;&quot;&gt;&amp;lt;&amp;lt;extends&amp;gt;&amp;gt;&lt;/font&gt;" style="text;html=1;align=center;verticalAlign=middle;whiteSpace=wrap;rounded=0;rotation=30;" vertex="1" parent="ToLTd-W0XipblOC063zZ-1">
          <mxGeometry x="310" y="170" width="60" height="30" as="geometry" />
        </mxCell>
        <mxCell id="6xdWwRQ45FuQLCWsqopB-24" style="edgeStyle=none;rounded=0;orthogonalLoop=1;jettySize=auto;html=1;exitX=1;exitY=0.5;exitDx=0;exitDy=0;endArrow=none;startFill=0;" edge="1" parent="ToLTd-W0XipblOC063zZ-1" source="6xdWwRQ45FuQLCWsqopB-21">
          <mxGeometry relative="1" as="geometry">
            <mxPoint x="610.0000000000005" y="610" as="targetPoint" />
          </mxGeometry>
        </mxCell>
        <mxCell id="6xdWwRQ45FuQLCWsqopB-21" value="" style="ellipse;whiteSpace=wrap;html=1;" vertex="1" parent="ToLTd-W0XipblOC063zZ-1">
          <mxGeometry x="364.38" y="560" width="165.62" height="80" as="geometry" />
        </mxCell>
        <mxCell id="6xdWwRQ45FuQLCWsqopB-22" value="&lt;font style=&quot;font-size: 14px;&quot;&gt; Send &lt;br/&gt;automated &lt;br/&gt;massages&lt;/font&gt;" style="text;html=1;align=center;verticalAlign=middle;whiteSpace=wrap;rounded=0;" vertex="1" parent="ToLTd-W0XipblOC063zZ-1">
          <mxGeometry x="395.78" y="585" width="102.81" height="30" as="geometry" />
        </mxCell>
        <mxCell id="ToLTd-W0XipblOC063zZ-17" style="edgeStyle=none;rounded=0;orthogonalLoop=1;jettySize=auto;html=1;exitX=0.5;exitY=0.5;exitDx=0;exitDy=0;exitPerimeter=0;entryX=0;entryY=0.5;entryDx=0;entryDy=0;endArrow=none;startFill=0;" parent="1" source="ToLTd-W0XipblOC063zZ-6" target="ToLTd-W0XipblOC063zZ-12" edge="1">
          <mxGeometry relative="1" as="geometry" />
        </mxCell>
        <mxCell id="ToLTd-W0XipblOC063zZ-18" style="edgeStyle=none;rounded=0;orthogonalLoop=1;jettySize=auto;html=1;exitX=0.5;exitY=0.5;exitDx=0;exitDy=0;exitPerimeter=0;entryX=0;entryY=0.5;entryDx=0;entryDy=0;endArrow=none;startFill=0;" parent="1" source="ToLTd-W0XipblOC063zZ-6" target="ToLTd-W0XipblOC063zZ-13" edge="1">
          <mxGeometry relative="1" as="geometry" />
        </mxCell>
        <mxCell id="ToLTd-W0XipblOC063zZ-6" value="&lt;strong data-end=&quot;116&quot; data-start=&quot;105&quot;&gt;Student&lt;/strong&gt;" style="shape=umlActor;verticalLabelPosition=bottom;verticalAlign=top;html=1;outlineConnect=0;" parent="1" vertex="1">
          <mxGeometry x="50" y="170" width="40" height="80" as="geometry" />
        </mxCell>
        <mxCell id="ToLTd-W0XipblOC063zZ-20" style="edgeStyle=none;rounded=0;orthogonalLoop=1;jettySize=auto;html=1;exitX=0.5;exitY=0.5;exitDx=0;exitDy=0;exitPerimeter=0;entryX=0.057;entryY=0.248;entryDx=0;entryDy=0;entryPerimeter=0;endArrow=none;startFill=0;" parent="1" source="ToLTd-W0XipblOC063zZ-6" target="ToLTd-W0XipblOC063zZ-15" edge="1">
          <mxGeometry relative="1" as="geometry" />
        </mxCell>
        <mxCell id="ToLTd-W0XipblOC063zZ-29" style="edgeStyle=none;rounded=0;orthogonalLoop=1;jettySize=auto;html=1;exitX=0.5;exitY=0.5;exitDx=0;exitDy=0;exitPerimeter=0;entryX=0.01;entryY=0.347;entryDx=0;entryDy=0;entryPerimeter=0;endArrow=none;startFill=0;" parent="1" source="ToLTd-W0XipblOC063zZ-6" target="ToLTd-W0XipblOC063zZ-27" edge="1">
          <mxGeometry relative="1" as="geometry" />
        </mxCell>
        <mxCell id="ToLTd-W0XipblOC063zZ-52" style="edgeStyle=none;rounded=0;orthogonalLoop=1;jettySize=auto;html=1;exitX=0.5;exitY=0.5;exitDx=0;exitDy=0;exitPerimeter=0;entryX=0;entryY=0.5;entryDx=0;entryDy=0;endArrow=none;startFill=0;" parent="1" source="ToLTd-W0XipblOC063zZ-30" target="ToLTd-W0XipblOC063zZ-41" edge="1">
          <mxGeometry relative="1" as="geometry" />
        </mxCell>
        <mxCell id="ToLTd-W0XipblOC063zZ-30" value="&lt;b&gt;Librarian&lt;/b&gt;" style="shape=umlActor;verticalLabelPosition=bottom;verticalAlign=top;html=1;outlineConnect=0;" parent="1" vertex="1">
          <mxGeometry x="50" y="830" width="50" height="80" as="geometry" />
        </mxCell>
        <mxCell id="ToLTd-W0XipblOC063zZ-53" style="edgeStyle=none;rounded=0;orthogonalLoop=1;jettySize=auto;html=1;exitX=0.5;exitY=0.5;exitDx=0;exitDy=0;exitPerimeter=0;entryX=0.063;entryY=0.709;entryDx=0;entryDy=0;entryPerimeter=0;endArrow=none;startFill=0;" parent="1" source="ToLTd-W0XipblOC063zZ-30" target="ToLTd-W0XipblOC063zZ-43" edge="1">
          <mxGeometry relative="1" as="geometry" />
        </mxCell>
        <mxCell id="ToLTd-W0XipblOC063zZ-60" style="edgeStyle=none;rounded=0;orthogonalLoop=1;jettySize=auto;html=1;exitX=0.5;exitY=0.5;exitDx=0;exitDy=0;exitPerimeter=0;entryX=0.05;entryY=0.689;entryDx=0;entryDy=0;entryPerimeter=0;endArrow=none;startFill=0;" parent="1" source="ToLTd-W0XipblOC063zZ-30" target="ToLTd-W0XipblOC063zZ-58" edge="1">
          <mxGeometry relative="1" as="geometry" />
        </mxCell>
        <mxCell id="ToLTd-W0XipblOC063zZ-61" value="Library System" style="shape=umlActor;verticalLabelPosition=bottom;verticalAlign=top;html=1;outlineConnect=0;" parent="1" vertex="1">
          <mxGeometry x="770" y="570" width="50" height="60" as="geometry" />
        </mxCell>
        <mxCell id="ToLTd-W0XipblOC063zZ-62" style="edgeStyle=none;rounded=0;orthogonalLoop=1;jettySize=auto;html=1;exitX=1;exitY=0.5;exitDx=0;exitDy=0;entryX=0;entryY=1;entryDx=0;entryDy=0;entryPerimeter=0;endArrow=none;startFill=0;" parent="1" source="ToLTd-W0XipblOC063zZ-42" target="ToLTd-W0XipblOC063zZ-61" edge="1">
          <mxGeometry relative="1" as="geometry" />
        </mxCell>
        <mxCell id="6xdWwRQ45FuQLCWsqopB-5" value="" style="endArrow=none;html=1;rounded=0;entryX=0;entryY=0.5;entryDx=0;entryDy=0;startFill=0;" edge="1" parent="1" target="6xdWwRQ45FuQLCWsqopB-1">
          <mxGeometry width="50" height="50" relative="1" as="geometry">
            <mxPoint x="80" y="870" as="sourcePoint" />
            <mxPoint x="420" y="560" as="targetPoint" />
          </mxGeometry>
        </mxCell>
      </root>
    </mxGraphModel>
  </diagram>
</mxfile>
